<?xml version="1.0" encoding="utf-8"?>
<svg viewBox="35.39 10.167 451.288 135.727" xmlns="http://www.w3.org/2000/svg">
  <defs>
    <linearGradient gradientUnits="userSpaceOnUse" x1="422.797" y1="-350.357" x2="422.797" y2="86.914" id="gradient-1" gradientTransform="matrix(0.00172, -1.101199, 2.090555, 0.004554, 698.906181, 343.654183)">
      <stop offset="0" style="stop-color: rgb(139, 135, 165);"/>
      <stop offset="0.327" style="stop-color: rgb(117, 110, 168);"/>
      <stop offset="0.393" style="stop-color: rgb(112, 104, 168);"/>
      <stop offset="0.416" style="stop-color: rgb(110, 103, 168);"/>
      <stop offset="0.481" style="stop-color: rgb(106, 98, 169);"/>
      <stop offset="0.54" style="stop-color: rgb(102, 93, 169);"/>
      <stop offset="1" style="stop-color: rgb(96, 78, 209);"/>
    </linearGradient>
    <linearGradient gradientUnits="userSpaceOnUse" x1="276.202" y1="346.196" x2="276.202" y2="412.643" id="gradient-2" gradientTransform="matrix(-0.008691, -1.032849, 0.891701, -0.008007, -52.544133, 597.875344)">
      <stop offset="0" style="stop-color: rgb(110, 103, 168);"/>
      <stop offset="1" style="stop-color: rgb(106, 98, 169);"/>
    </linearGradient>
    <linearGradient gradientUnits="userSpaceOnUse" x1="256.465" y1="296.102" x2="256.465" y2="390.43" id="gradient-3" gradientTransform="matrix(0.17838, -1.016321, 1.583819, 0.296568, -337.221648, 512.238521)">
      <stop offset="0" style="stop-color: rgb(117, 110, 168);"/>
      <stop offset="1" style="stop-color: rgb(106, 98, 169);"/>
    </linearGradient>
  </defs>
  <g transform="matrix(0.892561, 0, 0, 0.864142, -14.032384, -196.075688)" style="">
    <title>Logo</title>
    <path d="M 202.5972 -13.993199999999998 L 131.4144 -142.0614 L 186.47459999999998 -208.6812 L 218.11139999999997 -213.24419999999998 L 218.11139999999997 -224.19539999999998 L 141.1488 -224.19539999999998 L 141.1488 -213.24419999999998 L 169.1352 -208.6812 L 79.3962 -97.03979999999999 L 79.3962 -119.85479999999998 C 79.3962 -150.57899999999998 79.3962 -180.39059999999998 80.0046 -209.89799999999997 L 110.72879999999999 -213.24419999999998 L 110.72879999999999 -224.19539999999998 L 14.601599999999998 -224.19539999999998 L 14.601599999999998 -213.24419999999998 L 44.7174 -209.89799999999997 C 45.325799999999994 -180.08639999999997 45.325799999999994 -149.66639999999998 45.325799999999994 -119.85479999999998 L 45.325799999999994 -104.3406 C 45.325799999999994 -73.9206 45.325799999999994 -43.80479999999999 44.7174 -14.297399999999998 L 14.601599999999998 -10.951199999999998 L 14.601599999999998 0 L 109.51199999999999 0 L 109.51199999999999 -10.951199999999998 L 80.0046 -14.297399999999998 C 79.3962 -37.416599999999995 79.3962 -59.6232 79.3962 -79.092 L 109.8162 -116.20439999999999 L 164.8764 -13.993199999999998 L 138.41099999999997 -10.951199999999998 L 138.41099999999997 0 L 227.23739999999998 0 L 227.23739999999998 -10.951199999999998 Z M 570.4381669433594 -29.507399999999997 C 558.8785669433594 -17.6436 549.1441669433593 -13.384799999999998 536.0635669433593 -13.384799999999998 C 509.5981669433594 -13.384799999999998 489.82516694335936 -32.5494 489.82516694335936 -80.0046 C 489.82516694335936 -128.67659999999998 511.4233669433594 -146.9286 536.6719669433594 -146.9286 C 547.0147669433594 -146.9286 557.6617669433593 -142.974 570.4381669433594 -132.0228 Z M 602.6833669433594 -12.168 L 602.6833669433594 -197.73 L 604.2043669433593 -245.18519999999998 L 599.6413669433593 -247.61879999999996 L 544.2769669433594 -234.5382 L 544.2769669433594 -225.10799999999998 L 571.6549669433593 -222.6744 L 571.6549669433593 -143.2782 C 558.2701669433593 -159.0966 543.9727669433594 -164.57219999999998 527.5459669433594 -164.57219999999998 C 486.1747669433594 -164.57219999999998 455.1463669433594 -131.71859999999998 455.1463669433594 -78.78779999999999 C 455.1463669433594 -28.594799999999996 484.04536694335934 4.563 524.1997669433594 4.563 C 544.2769669433594 4.563 559.4869669433593 -3.9545999999999997 571.3507669433593 -18.252 L 573.4801669433593 3.3461999999999996 L 628.2361669433594 0 L 628.2361669433594 -9.734399999999999 Z M 760.7848240234375 -33.157799999999995 C 743.7496240234375 -19.468799999999998 736.1446240234375 -15.209999999999999 725.1934240234375 -15.209999999999999 C 709.9834240234375 -15.209999999999999 699.3364240234375 -23.1192 699.3364240234375 -41.06699999999999 C 699.3364240234375 -56.276999999999994 706.3330240234375 -69.6618 733.1026240234374 -80.30879999999999 C 739.4908240234375 -82.74239999999999 749.8336240234376 -86.08859999999999 760.7848240234375 -89.13059999999999 Z M 818.2786240234375 -20.077199999999998 C 813.1072240234375 -13.993199999999998 809.7610240234375 -11.5596 804.2854240234375 -11.5596 C 797.2888240234374 -11.5596 792.7258240234376 -16.4268 792.7258240234376 -31.636799999999997 L 792.7258240234376 -106.46999999999998 C 792.7258240234376 -148.1454 775.9948240234374 -164.57219999999998 738.8824240234375 -164.57219999999998 C 701.4658240234374 -164.57219999999998 676.8256240234375 -148.44959999999998 671.6542240234375 -122.28839999999998 C 672.8710240234375 -113.46659999999999 678.6508240234375 -108.90359999999998 687.7768240234375 -108.90359999999998 C 697.2070240234375 -108.90359999999998 703.5952240234375 -114.98759999999999 706.0288240234374 -127.76399999999998 L 711.2002240234375 -150.2748 C 717.8926240234375 -152.1 723.6724240234375 -152.70839999999998 729.1480240234375 -152.70839999999998 C 751.9630240234375 -152.70839999999998 760.7848240234375 -143.8866 760.7848240234375 -111.3372 L 760.7848240234375 -98.865 C 748.0084240234374 -95.823 734.6236240234375 -91.8684 724.2808240234375 -88.82639999999999 C 679.8676240234375 -73.6164 667.0912240234375 -58.71059999999999 667.0912240234375 -36.199799999999996 C 667.0912240234375 -10.038599999999999 685.9516240234375 4.563 710.8960240234375 4.563 C 732.1900240234374 4.563 744.0538240234375 -4.563 761.6974240234375 -22.510799999999996 C 764.7394240234376 -6.084 775.6906240234375 3.9545999999999997 792.7258240234376 3.9545999999999997 C 806.4148240234375 3.9545999999999997 816.1492240234375 -0.9125999999999999 823.4500240234374 -14.601599999999998 Z" transform="matrix(0.6048470139503479, -0.00008100000559352338, 0, 0.5673250555992126, 54.75654602050781, 384.7023620605469)" style="fill: url(#gradient-1); paint-order: fill; white-space: pre;"/>
    <path d="M 261.713 317.85 L 280.786 328.863 C 281.112 329.052 281.311 329.398 281.312 329.774 L 281.312 351.798 C 281.312 352.173 281.514 352.521 281.839 352.708 L 298.86 362.536 C 299.562 362.941 300.439 362.433 300.439 361.625 L 300.439 318.73 C 300.439 318.354 300.238 318.008 299.914 317.819 L 262.767 296.373 C 262.065 295.968 261.187 296.477 261.187 297.286 L 261.187 316.941 C 261.187 317.317 261.387 317.663 261.713 317.852" style="fill: url(#gradient-2); paint-order: fill;"/>
    <path d="M 277.921 357.19 L 258.848 368.203 C 258.524 368.393 258.121 368.393 257.796 368.203 L 236.061 355.655 C 235.735 355.466 235.535 355.118 235.535 354.742 L 235.535 329.644 C 235.536 329.268 235.737 328.922 236.062 328.733 L 255.135 317.722 C 255.461 317.535 255.662 317.187 255.662 316.811 L 255.662 297.156 C 255.662 296.347 254.785 295.84 254.083 296.244 L 216.935 317.693 C 216.609 317.881 216.41 318.228 216.41 318.604 L 216.41 365.786 C 216.41 366.162 216.61 366.508 216.935 366.698 L 257.796 390.287 C 258.121 390.477 258.524 390.477 258.848 390.287 L 295.995 368.841 C 296.696 368.436 296.696 367.423 295.995 367.018 L 278.973 357.19 C 278.646 357.002 278.247 357.002 277.921 357.19" style="fill: url(#gradient-3); paint-order: fill;"/>
  </g>
</svg>